HIERARCHY
ROOT hip
{
  OFFSET 0 0 0
  CHANNELS 6 Xposition Yposition Zposition Zrotation Yrotation Xrotation
  JOINT abdomen
  {
    OFFSET 0 20.6881 -0.73152
    CHANNELS 3 Zrotation Xrotation Yrotation
    JOINT chest
    {
      OFFSET 0 11.7043 -0.48768
      CHANNELS 3 Zrotation Xrotation Yrotation
      JOINT neck
      {
        OFFSET 0 22.1894 -2.19456
        CHANNELS 3 Zrotation Xrotation Yrotation
        JOINT head
        {
          OFFSET -0.24384 7.07133 1.2192
          CHANNELS 3 Zrotation Xrotation Yrotation
          JOINT leftEye
          {
            OFFSET 4.14528 8.04674 8.04672
            CHANNELS 3 Zrotation Xrotation Yrotation
            End Site
            {
              OFFSET 1 0 0
            }
          }
          JOINT rightEye
          {
            OFFSET -3.6576 8.04674 8.04672
            CHANNELS 3 Zrotation Xrotation Yrotation
            End Site
            {
              OFFSET 1 0 0
            }
          }
        }
      }
      JOINT rCollar
      {
        OFFSET -2.68224 19.2634 -4.8768
        CHANNELS 3 Zrotation Xrotation Yrotation
        JOINT rShldr
        {
          OFFSET -8.77824 -1.95073 1.46304
          CHANNELS 3 Zrotation Xrotation Yrotation
          JOINT rForeArm
          {
            OFFSET -28.1742 -1.7115 0.48768
            CHANNELS 3 Zrotation Xrotation Yrotation
            JOINT rHand
            {
              OFFSET -22.5879 0.773209 7.07136
              CHANNELS 3 Zrotation Xrotation Yrotation
              JOINT rThumb1
              {
                OFFSET -1.2192 -0.487915 3.41376
                CHANNELS 3 Zrotation Xrotation Yrotation
                JOINT rThumb2
                {
                  OFFSET -3.37035 -0.52449 3.41376
                  CHANNELS 3 Zrotation Xrotation Yrotation
                  End Site
                  {
                    OFFSET -1.78271 -1.18214 1.43049
                  }
                }
              }
              JOINT rIndex1
              {
                OFFSET -7.75947 0.938293 5.60832
                CHANNELS 3 Zrotation Xrotation Yrotation
                JOINT rIndex2
                {
                  OFFSET -2.54057 -0.884171 1.56538
                  CHANNELS 3 Zrotation Xrotation Yrotation
                  End Site
                  {
                    OFFSET -1.62519 -0.234802 1.16502
                  }
                }
              }
              JOINT rMid1
              {
                OFFSET -8.24714 1.18213 3.41376
                CHANNELS 3 Zrotation Xrotation Yrotation
                JOINT rMid2
                {
                  OFFSET -3.10165 -0.590103 1.0647
                  CHANNELS 3 Zrotation Xrotation Yrotation
                  End Site
                  {
                    OFFSET -2.48547 -0.328903 0.83742
                  }
                }
              }
              JOINT rRing1
              {
                OFFSET -8.82822 0.546677 1.51678
                CHANNELS 3 Zrotation Xrotation Yrotation
                JOINT rRing2
                {
                  OFFSET -2.60934 -0.819778 -0.0198488
                  CHANNELS 3 Zrotation Xrotation Yrotation
                  End Site
                  {
                    OFFSET -2.33842 -0.294052 0.168128
                  }
                }
              }
              JOINT rPinky1
              {
                OFFSET -8.27202 -0.0477905 -0.4584
                CHANNELS 3 Zrotation Xrotation Yrotation
                JOINT rPinky2
                {
                  OFFSET -1.82734 -0.647385 -0.700984
                  CHANNELS 3 Zrotation Xrotation Yrotation
                  End Site
                  {
                    OFFSET -1.69225 -0.51767 -0.607171
                  }
                }
              }
            }
          }
        }
      }
      JOINT lCollar
      {
        OFFSET 2.68224 19.2634 -4.8768
        CHANNELS 3 Zrotation Xrotation Yrotation
        JOINT lShldr
        {
          OFFSET 8.77824 -1.95073 1.46304
          CHANNELS 3 Zrotation Xrotation Yrotation
          JOINT lForeArm
          {
            OFFSET 28.1742 -1.7115 0.48768
            CHANNELS 3 Zrotation Xrotation Yrotation
            JOINT lHand
            {
              OFFSET 22.5879 0.773209 7.07136
              CHANNELS 3 Zrotation Xrotation Yrotation
              JOINT lThumb1
              {
                OFFSET 1.2192 -0.487915 3.41376
                CHANNELS 3 Zrotation Xrotation Yrotation
                JOINT lThumb2
                {
                  OFFSET 3.37035 -0.52449 3.41376
                  CHANNELS 3 Zrotation Xrotation Yrotation
                  End Site
                  {
                    OFFSET 1.78271 -1.18214 1.43049
                  }
                }
              }
              JOINT lIndex1
              {
                OFFSET 7.75947 0.938293 5.60832
                CHANNELS 3 Zrotation Xrotation Yrotation
                JOINT lIndex2
                {
                  OFFSET 2.54057 -0.884171 1.56538
                  CHANNELS 3 Zrotation Xrotation Yrotation
                  End Site
                  {
                    OFFSET 1.62519 -0.234802 1.16502
                  }
                }
              }
              JOINT lMid1
              {
                OFFSET 8.24714 1.18213 3.41376
                CHANNELS 3 Zrotation Xrotation Yrotation
                JOINT lMid2
                {
                  OFFSET 3.10165 -0.590103 1.0647
                  CHANNELS 3 Zrotation Xrotation Yrotation
                  End Site
                  {
                    OFFSET 2.48547 -0.328903 0.83742
                  }
                }
              }
              JOINT lRing1
              {
                OFFSET 8.82822 0.546677 1.51678
                CHANNELS 3 Zrotation Xrotation Yrotation
                JOINT lRing2
                {
                  OFFSET 2.60934 -0.819778 -0.0198488
                  CHANNELS 3 Zrotation Xrotation Yrotation
                  End Site
                  {
                    OFFSET 2.33842 -0.294052 0.168128
                  }
                }
              }
              JOINT lPinky1
              {
                OFFSET 8.27202 -0.0477905 -0.4584
                CHANNELS 3 Zrotation Xrotation Yrotation
                JOINT lPinky2
                {
                  OFFSET 1.82734 -0.647385 -0.700984
                  CHANNELS 3 Zrotation Xrotation Yrotation
                  End Site
                  {
                    OFFSET 1.69225 -0.51767 -0.607171
                  }
                }
              }
            }
          }
        }
      }
    }
  }
  JOINT rButtock
  {
    OFFSET -8.77824 4.35084 1.2192
    CHANNELS 3 Zrotation Xrotation Yrotation
    JOINT rThigh
    {
      OFFSET 0 -1.70687 -2.19456
      CHANNELS 3 Zrotation Xrotation Yrotation
      JOINT rShin
      {
        OFFSET 0 -36.8199 0.73152
        CHANNELS 3 Zrotation Xrotation Yrotation
        JOINT rFoot
        {
          OFFSET 0.73152 -45.1104 -5.12064
          CHANNELS 3 Zrotation Xrotation Yrotation
          End Site
          {
            OFFSET -1.1221 -3.69964 12.103
          }
        }
      }
    }
  }
  JOINT lButtock
  {
    OFFSET 8.77824 4.35084 1.2192
    CHANNELS 3 Zrotation Xrotation Yrotation
    JOINT lThigh
    {
      OFFSET 0 -1.70687 -2.19456
      CHANNELS 3 Zrotation Xrotation Yrotation
      JOINT lShin
      {
        OFFSET 0 -36.8199 0.73152
        CHANNELS 3 Zrotation Xrotation Yrotation
        JOINT lFoot
        {
          OFFSET -0.73152 -45.1104 -5.12064
          CHANNELS 3 Zrotation Xrotation Yrotation
          End Site
          {
            OFFSET 1.1221 -3.69964 12.103
          }
        }
      }
    }
  }
}
MOTION
Frames:	6
Frame Time:	0.00833333
-6.12469 82.2556 302.486 0.0 0.0 0.0 -4.77307 0.0092571 -0.128167 -1.31326 0.040429 -0.226879 8.51561e-14 2.38542e-15 1.2921e-15 2.54545e-13 1.59028e-14 3.57191e-15 -0.0 0.0 0.0 -0.0 0.0 0.0 4.33365e-14 2.31786e-16 6.4605e-16 8.95067e-13 5.76476e-15 1.64991e-14 1.53193e-11 -4.43648e-12 7.95139e-14 1.7584e-10 5.57765e-12 2.67803e-12 4.14683e-10 2.46749e-12 5.96036e-12 7.16127e-10 4.25558e-12 1.02684e-11 4.14684e-10 2.46533e-12 5.95718e-12 7.73091 5.47488 0.417314 4.14683e-10 2.46712e-12 5.96036e-12 2.90554 0.965183 0.102902 4.14688e-10 2.46741e-12 5.95718e-12 10.2786 0.731801 0.0259123 4.14684e-10 2.46851e-12 5.95718e-12 2.22167 -0.733487 -0.20892 4.31376e-14 2.39163e-16 4.47265e-16 8.92926e-13 5.11871e-15 1.41137e-14 1.54013e-11 4.76646e-12 9.54166e-14 1.75772e-10 -3.65249e-12 2.67485e-12 4.14716e-10 2.41382e-12 5.954e-12 7.16209e-10 4.16335e-12 1.02859e-11 4.14714e-10 2.41205e-12 5.9699e-12 -7.73091 5.47488 -0.417314 4.14715e-10 2.41354e-12 5.954e-12 -2.90554 0.965183 -0.102902 4.14715e-10 2.41325e-12 5.96115e-12 -10.2786 0.731801 -0.0259123 4.1472e-10 2.41682e-12 5.96036e-12 -2.22167 -0.733487 0.20892 -2.03217e-16 0.0 -3.88251e-19 -3.15603 -1.94856 0.0346931 -0.00821356 -2.07871 -0.067223 -0.471269 4.00263 0.134374 2.03217e-16 0.0 3.88251e-19 -4.06286 -11.8419 0.547598 -0.0161045 15.8339 -0.442617 0.592394 -4.01615 0.0187549
-6.30123 80.9335 292.585 -179.345 -7.025 -171.022 -6.16423 -2.69582 -2.16341 -0.119796 1.79693 -0.765889 -1.40133 5.3998 -1.09458 4.48135 -13.3867 -0.114552 -0.0 0.0 0.0 -0.0 0.0 0.0 7.9476e-14 4.84782e-14 8.40048e-14 22.8852 -2.81847 -1.89937 -2.9469 -1.15778 4.78088 0.277472 11.7318 1.52676 -7.40691e-11 2.23459e-10 -7.57369e-10 -1.5165e-10 3.81556e-10 -1.2922e-09 -7.40675e-11 2.23458e-10 -7.57374e-10 7.73091 5.47488 0.417314 -7.40707e-11 2.23458e-10 -7.57365e-10 2.90554 0.965183 0.102902 -7.40648e-11 2.23459e-10 -7.57368e-10 10.2786 0.731801 0.0259123 -7.40709e-11 2.2346e-10 -7.57365e-10 2.22167 -0.733487 -0.20892 7.93178e-14 4.84857e-14 8.38149e-14 -22.4638 1.24927 -1.05784 3.62728 -1.54562 -5.77185 -0.00719369 1.88165 -0.263933 -6.78706e-10 -1.3962e-09 1.88673e-10 -1.17196e-09 -2.41501e-09 3.33273e-10 -6.78708e-10 -1.3962e-09 1.88687e-10 -7.73091 5.47488 -0.417314 -6.78705e-10 -1.3962e-09 1.88673e-10 -2.90554 0.965183 -0.102902 -6.78707e-10 -1.3962e-09 1.88677e-10 -10.2786 0.731801 -0.0259123 -6.78701e-10 -1.3962e-09 1.88675e-10 -2.22167 -0.733487 0.20892 -2.03217e-16 0.0 -3.88251e-19 -4.58347 -10.6013 -0.999645 0.0332023 5.36694 0.152501 -0.392557 1.48937 1.23516 2.03217e-16 0.0 3.88251e-19 -4.16403 -13.0171 2.09857 -0.0840089 18.8187 -0.591148 0.342936 -3.98892 -5.33283
-6.27585 81.4855 292.561 -179.14 -6.9714 -171.089 -7.85141 -5.54067 -4.33431 1.18091 3.65253 -1.33882 -2.65428 11.1021 -2.28834 9.15193 -27.5354 -0.268076 -0.0 0.0 0.0 -0.0 0.0 0.0 1.20525e-13 1.02821e-13 1.77878e-13 46.871 -5.80016 -3.92481 -5.8491 -2.35267 9.83503 -0.168042 24.1191 3.37115 -6.10559e-10 4.70847e-10 -1.61413e-09 -1.10478e-09 8.04003e-10 -2.75427e-09 -6.10557e-10 4.70847e-10 -1.61414e-09 7.73091 5.47488 0.417314 -6.10562e-10 4.70846e-10 -1.61413e-09 2.90554 0.965183 0.102902 -6.10556e-10 4.70848e-10 -1.61413e-09 10.2786 0.731801 0.0259123 -6.10563e-10 4.70849e-10 -1.61412e-09 2.22167 -0.733487 -0.20892 1.2041e-13 1.02829e-13 1.77695e-13 -46.1642 2.53281 -2.17466 7.12086 -3.12452 -11.8803 0.00408622 3.86848 -0.543587 -1.89699e-09 -2.9574e-09 3.94644e-10 -3.27574e-09 -5.11535e-09 6.97306e-10 -1.89699e-09 -2.9574e-09 3.94656e-10 -7.73091 5.47488 -0.417314 -1.89699e-09 -2.9574e-09 3.94644e-10 -2.90554 0.965183 -0.102902 -1.89699e-09 -2.9574e-09 3.94645e-10 -10.2786 0.731801 -0.0259123 -1.89698e-09 -2.9574e-09 3.94643e-10 -2.22167 -0.733487 0.20892 -2.03217e-16 0.0 -3.88251e-19 -6.45701 -19.7392 -2.19012 0.0135627 13.2399 0.393801 -0.204531 -1.16239 2.39867 2.03217e-16 0.0 3.88251e-19 -4.20303 -14.247 3.75537 -0.137527 21.9725 -0.755738 0.0866405 -3.91287 -10.993
-6.26576 81.4676 292.556 -179.112 -6.9402 -171.112 -9.52679 -8.06357 -6.28914 2.36666 5.30767 -1.85072 -3.56372 16.1752 -3.40407 13.2415 -40.1595 -0.437447 -0.0 0.0 0.0 -0.0 0.0 0.0 1.51755e-13 1.44971e-13 2.50722e-13 68.0908 -8.41805 -5.75341 -8.26693 -3.37674 14.3652 -1.39404 35.084 5.48305 -1.05157e-09 6.65442e-10 -2.28403e-09 -1.8872e-09 1.13616e-09 -3.89715e-09 -1.05157e-09 6.65442e-10 -2.28404e-09 7.73091 5.47488 0.417314 -1.05158e-09 6.65439e-10 -2.28402e-09 2.90554 0.965183 0.102902 -1.05157e-09 6.65442e-10 -2.28402e-09 10.2786 0.731801 0.0259123 -1.05158e-09 6.65444e-10 -2.28401e-09 2.22167 -0.733487 -0.20892 1.51678e-13 1.44979e-13 2.5055e-13 -67.2529 3.74269 -3.17956 9.96105 -4.44898 -17.3632 0.0306397 5.64446 -0.795228 -2.86555e-09 -4.19344e-09 5.54111e-10 -4.9483e-09 -7.25335e-09 9.79246e-10 -2.86555e-09 -4.19344e-09 5.54121e-10 -7.73091 5.47488 -0.417314 -2.86555e-09 -4.19344e-09 5.5411e-10 -2.90554 0.965183 -0.102902 -2.86555e-09 -4.19344e-09 5.54109e-10 -10.2786 0.731801 -0.0259123 -2.86554e-09 -4.19344e-09 5.54106e-10 -2.22167 -0.733487 0.20892 -2.03217e-16 0.0 -3.88251e-19 -8.48129 -27.8694 -3.41338 -0.0637513 20.2572 0.628744 0.0546417 -3.52977 3.44267 2.03217e-16 0.0 3.88251e-19 -4.16886 -15.3302 5.24923 -0.168428 24.7876 -0.910925 -0.137455 -3.83172 -16.0338
-6.28882 81.4581 292.556 -179.263 -6.9211 -171.132 -10.7611 -9.82197 -7.65141 3.19439 6.46377 -2.20374 -4.07755 19.699 -4.20935 16.0608 -48.9731 -0.543523 -0.0 0.0 0.0 -0.0 0.0 0.0 1.58439e-13 1.56638e-13 2.70993e-13 82.8009 -10.1626 -7.03599 -9.87328 -4.06474 17.564 -2.8979 42.5969 7.42451 -1.2539e-09 7.28051e-10 -2.48674e-09 -2.24286e-09 1.24257e-09 -4.24207e-09 -1.25389e-09 7.28052e-10 -2.48675e-09 7.73091 5.47488 0.417314 -1.2539e-09 7.28048e-10 -2.48673e-09 2.90554 0.965183 0.102902 -1.25389e-09 7.28051e-10 -2.48673e-09 10.2786 0.731801 0.0259123 -1.2539e-09 7.28053e-10 -2.48672e-09 2.22167 -0.733487 -0.20892 1.58384e-13 1.56646e-13 2.70844e-13 -81.9031 4.77288 -3.89976 11.8074 -5.31447 -21.2376 0.058643 6.89372 -0.973598 -3.20981e-09 -4.6166e-09 5.97315e-10 -5.54281e-09 -7.98547e-09 1.05595e-09 -3.20981e-09 -4.61659e-09 5.97324e-10 -7.73091 5.47488 -0.417314 -3.2098e-09 -4.61659e-09 5.97315e-10 -2.90554 0.965183 -0.102902 -3.20981e-09 -4.6166e-09 5.97311e-10 -10.2786 0.731801 -0.0259123 -3.2098e-09 -4.61659e-09 5.97308e-10 -2.22167 -0.733487 0.20892 -2.03217e-16 0.0 -3.88251e-19 -10.1072 -33.5154 -4.39735 -0.155477 25.1361 0.810696 0.287998 -5.1941 4.17754 2.03217e-16 0.0 3.88251e-19 -4.09182 -16.0756 6.29937 -0.180026 26.7568 -1.02506 -0.305944 -3.80765 -19.5288
-6.29306 81.4475 292.559 -179.342 -6.8777 -171.12 -11.1924 -10.5357 -8.13504 3.48264 6.91703 -2.32602 -4.26085 21.0758 -4.4889 17.2574 -52.4654 -0.427122 -0.0 0.0 0.0 -0.0 0.0 0.0 1.26159e-13 1.22555e-13 2.07682e-13 88.5795 -10.7239 -7.533 -10.5147 -4.34476 18.8839 -3.65931 45.3925 8.31164 -1.09677e-09 5.83308e-10 -1.94016e-09 -1.95434e-09 9.93983e-10 -3.30657e-09 -1.09676e-09 5.83306e-10 -1.94018e-09 7.73091 5.47488 0.417314 -1.09677e-09 5.83303e-10 -1.94015e-09 2.90554 0.965183 0.102902 -1.09676e-09 5.83306e-10 -1.94016e-09 10.2786 0.731801 0.0259123 -1.09678e-09 5.83308e-10 -1.94014e-09 2.22167 -0.733487 -0.20892 1.26102e-13 1.22562e-13 2.07584e-13 -87.5666 5.63084 -4.19797 12.5486 -5.67018 -22.8618 0.0718555 7.387 -1.04441 -2.57108e-09 -3.78354e-09 4.5971e-10 -4.43987e-09 -6.54508e-09 8.1337e-10 -2.57109e-09 -3.78354e-09 4.5972e-10 -7.73091 5.47488 -0.417314 -2.57108e-09 -3.78354e-09 4.59711e-10 -2.90554 0.965183 -0.102902 -2.57109e-09 -3.78354e-09 4.59708e-10 -10.2786 0.731801 -0.0259123 -2.57108e-09 -3.78354e-09 4.59706e-10 -2.22167 -0.733487 0.20892 -2.03217e-16 0.0 -3.88251e-19 -10.7301 -35.7123 -4.76678 -0.200716 27.0249 0.887551 0.394003 -5.87247 4.47139 2.03217e-16 0.0 3.88251e-19 -4.0142 -16.3568 6.73274 -0.182504 27.5419 -1.07227 -0.411667 -3.90094 -20.8609
